HIERARCHY
ROOT RootJoint
{
    OFFSET   0.000000   0.000000   0.000000
    CHANNELS 6 Xposition Yposition Zposition Xrotation Yrotation Zrotation
    JOINT pelvis_lowerback
    {
        OFFSET   0.000000   0.093605   0.000000
        CHANNELS 3 Xrotation Yrotation Zrotation
        JOINT lowerback_torso
        {
            OFFSET   0.000000   0.100000   0.000000
            CHANNELS 3 Xrotation Yrotation Zrotation
            JOINT torso_head
            {
                OFFSET   0.000000   0.282350   0.000000
                CHANNELS 3 Xrotation Yrotation Zrotation
                End Site
                {
                    OFFSET   0.000000   0.192650   0.000000
                }
            }
            JOINT rTorso_Clavicle
            {
                OFFSET  -0.001000   0.157500   0.000000
                CHANNELS 3 Xrotation Yrotation Zrotation
                JOINT rShoulder
                {
                    OFFSET  -0.117647   0.000000   0.000000
                    CHANNELS 3 Xrotation Yrotation Zrotation
                    JOINT rElbow
                    {
                        OFFSET  -0.245000   0.000000   0.000000
                        CHANNELS 3 Xrotation Yrotation Zrotation
                        JOINT rWrist
                        {
                            OFFSET  -0.240000   0.000000   0.000000
                            CHANNELS 3 Xrotation Yrotation Zrotation
                            End Site
                            {
                                OFFSET  -0.116353  -0.002500   0.000000
                            }
                        }
                    }
                }
            }
            JOINT lTorso_Clavicle
            {
                OFFSET   0.001000   0.157500   0.000000
                CHANNELS 3 Xrotation Yrotation Zrotation
                JOINT lShoulder
                {
                    OFFSET   0.117647   0.000000   0.000000
                    CHANNELS 3 Xrotation Yrotation Zrotation
                    JOINT lElbow
                    {
                        OFFSET   0.245000   0.000000   0.000000
                        CHANNELS 3 Xrotation Yrotation Zrotation
                        JOINT lWrist
                        {
                            OFFSET   0.240000   0.000000   0.000000
                            CHANNELS 3 Xrotation Yrotation Zrotation
                            End Site
                            {
                                OFFSET   0.116353  -0.002500   0.000000
                            }
                        }
                    }
                }
            }
        }
    }
    JOINT rHip
    {
        OFFSET  -0.100000  -0.051395   0.000000
        CHANNELS 3 Xrotation Yrotation Zrotation
        JOINT rKnee
        {
            OFFSET   0.000000  -0.410000   0.000000
            CHANNELS 3 Xrotation Yrotation Zrotation
            JOINT rAnkle
            {
                OFFSET   0.000000  -0.390000   0.000000
                CHANNELS 3 Xrotation Yrotation Zrotation
                JOINT rToeJoint
                {
                    OFFSET   0.000000  -0.050000   0.130000
                    CHANNELS 3 Xrotation Yrotation Zrotation
                    End Site
                    {
                        OFFSET  -0.010000   0.002000   0.060000
                    }
                }
            }
        }
    }
    JOINT lHip
    {
        OFFSET   0.100000  -0.051395   0.000000
        CHANNELS 3 Xrotation Yrotation Zrotation
        JOINT lKnee
        {
            OFFSET   0.000000  -0.410000   0.000000
            CHANNELS 3 Xrotation Yrotation Zrotation
            JOINT lAnkle
            {
                OFFSET   0.000000  -0.390000   0.000000
                CHANNELS 3 Xrotation Yrotation Zrotation
                JOINT lToeJoint
                {
                    OFFSET   0.000000  -0.050000   0.130000
                    CHANNELS 3 Xrotation Yrotation Zrotation
                    End Site
                    {
                        OFFSET   0.010000   0.002000   0.060000
                    }
                }
            }
        }
    }
}
MOTION
Frames: 17
Frame Time:   0.008333
 -2.384477   0.907689   4.047554  -1.101669  -1.366812   0.470765  -4.261643  -0.521643  -0.966517   6.015333  -1.963081   1.997437  -1.828284  -1.132623   0.812123   6.077835  -2.567265  14.689149  13.970457   8.910362  47.194391  -0.066750  81.651771   0.063726   0.262472   5.155529  -5.019276   7.334290   1.833960 -15.043372  14.759285  -5.071277 -51.055423   0.002990 -65.857647  -0.001841  -1.823663  -3.952131   5.160033   0.825997  -2.102582  -7.641263  13.096579  -0.000002   0.000014 -12.556973  -1.321456   4.831557  -0.307157   0.000000  -0.000000   6.653303   0.782131   6.847262   4.371321   0.000000   0.000000 -10.793200   3.355612   2.388270   1.423340  -0.000010   0.000001
 -2.384562   0.907662   4.047501  -1.108974  -1.346057   0.483006  -4.270746  -0.520979  -0.974787   6.020733  -1.975972   2.032216  -1.766435  -1.130329   0.857619   5.982933  -2.576371  14.614348  13.447279   8.912906  47.268665  -0.113370  83.257155   0.110391   0.191489   4.761945  -5.124487   7.335741   1.846905 -14.987961  14.787500  -4.948106 -50.996552   0.005121 -65.086672   0.000472  -1.826603  -3.826317   5.144269   0.799432  -2.105753  -7.647721  13.169352  -0.000004   0.000020 -12.595582  -1.334892   4.819692  -0.305906   0.000000  -0.000000   6.635444   0.804644   6.844557   4.399739  -0.000001   0.000012 -10.801958   3.309399   2.379100   1.424861  -0.000008   0.000000
 -2.384650   0.907644   4.047403  -1.111537  -1.325593   0.494323  -4.274808  -0.522371  -0.981485   6.014776  -1.986624   2.067576  -1.695585  -1.129774   0.905216   5.836348  -2.571304  14.529038  12.904544   8.950430  47.345447  -0.178417  84.825830   0.175082   0.148671   4.720965  -5.304896   7.326650   1.855442 -14.922478  14.805164  -4.833353 -50.932959   0.006679 -64.371011   0.002129  -1.827958  -3.719538   5.155490   0.767309  -2.108839  -7.652560  13.236451  -0.000005   0.000024 -12.627757  -1.347964   4.807003  -0.304613   0.000000  -0.000000   6.611422   0.825056   6.842983   4.424548  -0.000001   0.000019 -10.805671   3.265542   2.371686   1.426572  -0.000007   0.000000
 -2.384738   0.907630   4.047312  -1.109729  -1.301495   0.504808  -4.282333  -0.517502  -0.986031   5.995745  -1.988685   2.102225  -1.626260  -1.129948   0.950752   5.668458  -2.550221  14.442077  12.372419   9.000707  47.414390  -0.272966  86.306992   0.269010   0.119967   4.822345  -5.516524   7.311214   1.859490 -14.852948  14.816273  -4.727780 -50.868027   0.007887 -63.705633   0.003494  -1.827636  -3.630899   5.176200   0.735687  -2.114500  -7.656064  13.295018  -0.000006   0.000028 -12.656028  -1.362672   4.794510  -0.303411   0.000000  -0.000000   6.585368   0.841511   6.842561   4.443955  -0.000002   0.000023 -10.806504   3.222434   2.365707   1.428413  -0.000005   0.000000
 -2.384824   0.907615   4.047248  -1.105511  -1.272461   0.514954  -4.295379  -0.505397  -0.988795   5.966348  -1.982763   2.135406  -1.561271  -1.130153   0.993616   5.495150  -2.519737  14.356147  11.862649   9.055186  47.476144  -0.447843  87.695858   0.443230   0.098093   4.973989  -5.735919   7.292210   1.861373 -14.782985  14.822874  -4.630194 -50.804062   0.008788 -63.086624   0.004635  -1.826180  -3.557867   5.203649   0.707358  -2.123461  -7.658933  13.347208  -0.000007   0.000030 -12.683247  -1.379717   4.782791  -0.302386   0.000000  -0.000000   6.559869   0.853653   6.842863   4.459462  -0.000002   0.000024 -10.806606   3.179144   2.360511   1.430284  -0.000004   0.000000
 -2.384908   0.907599   4.047216  -1.100387  -1.239150   0.524939  -4.313763  -0.487420  -0.990178   5.929779  -1.970880   2.166833  -1.501202  -1.130160   1.033807   5.324543  -2.484573  14.272815  11.380033   9.109908  47.532137  -1.007125  88.994913   1.001962   0.079995   5.142208  -5.952579   7.271622   1.862537 -14.714678  14.826527  -4.539533 -50.742389   0.009383 -62.510378   0.005536  -1.824026  -3.497446   5.236825   0.683264  -2.135316  -7.661516  13.395020  -0.000007   0.000033 -12.710860  -1.398783   4.772125  -0.301581   0.000000  -0.000000   6.536373   0.862021   6.843632   4.472458  -0.000002   0.000025 -10.807237   3.135749   2.355710   1.432124  -0.000004   0.000000
 -2.384991   0.907581   4.047216  -1.095211  -1.202932   0.534735  -4.336495  -0.465421  -0.990484   5.888748  -1.955055   2.196479  -1.445956  -1.129934   1.071439   5.160814  -2.447665  14.193077  10.926202   9.162890  47.583514 -175.392605  89.790471 175.387063   0.064240   5.313487  -6.161848   7.250701   1.863662 -14.649215  14.828311  -4.455059 -50.683747   0.009684 -61.973646   0.006179  -1.821464  -3.446925   5.274258   0.663360  -2.149278  -7.663902  13.439711  -0.000006   0.000035 -12.739294  -1.419179   4.762596  -0.301005   0.000000  -0.000000   6.515485   0.867439   6.844757   4.483865  -0.000002   0.000024 -10.808963   3.092743   2.351113   1.433905  -0.000003   0.000000
 -2.385069   0.907569   4.047078  -1.062989  -1.158639   0.552445  -4.364105  -0.462594  -0.992627   5.856800  -1.939466   2.234873  -1.354707  -1.135552   1.107155   5.017771  -2.459230  14.133151  10.290913   9.208303  47.659195 -179.421298  88.063056 179.415530   0.019353   5.035016  -6.321750   7.225688   1.891910 -14.574446  14.780153  -4.386023 -50.626889   0.009723 -61.544080   0.006534  -1.822905  -3.343028   5.320025   0.590232  -2.182256  -7.676132  13.512215  -0.000008   0.000032 -12.772288  -1.425203   4.749863  -0.299330   0.000000  -0.000000   6.445080   0.874764   6.840529   4.512179  -0.000002   0.000033 -10.804182   3.036780   2.331754   1.432784  -0.000002   0.000000
 -2.385140   0.907566   4.046902  -1.026511  -1.112397   0.569852  -4.386394  -0.458901  -0.990686   5.815536  -1.921604   2.273755  -1.257087  -1.141477   1.144796   4.833518  -2.458584  14.063074   9.649823   9.279572  47.736801 -179.661813  86.389760 179.655583   0.004543   5.055264  -6.545133   7.190880   1.914221 -14.494079  14.725336  -4.325375 -50.568743   0.009616 -61.151606   0.006680  -1.821220  -3.282149   5.383941   0.514096  -2.215393  -7.687933  13.576652  -0.000008   0.000031 -12.798429  -1.433114   4.736149  -0.297435   0.000000  -0.000000   6.370619   0.879018   6.836102   4.533528  -0.000002   0.000037 -10.792879   2.981987   2.315029   1.432014  -0.000002   0.000000
 -2.385206   0.907568   4.046731  -0.987965  -1.063052   0.586542  -4.409739  -0.449313  -0.985508   5.765309  -1.897842   2.311995  -1.163148  -1.147312   1.181310   4.635484  -2.444095  13.989879   9.029747   9.358405  47.807652 -179.759072  84.813492 179.752309   0.003860   5.195249  -6.790738   7.151112   1.930813 -14.412576  14.668462  -4.271329 -50.510206   0.009432 -60.788559   0.006739  -1.817492  -3.245230   5.454048   0.440853  -2.249474  -7.698869  13.632682  -0.000008   0.000030 -12.820809  -1.443769   4.722523  -0.295553   0.000000  -0.000000   6.296887   0.879762   6.832111   4.548904  -0.000002   0.000037 -10.778659   2.928016   2.300372   1.431530  -0.000002   0.000000
 -2.385268   0.907569   4.046583  -0.949540  -1.010728   0.602652  -4.435792  -0.433979  -0.978132   5.709186  -1.869271   2.348996  -1.075224  -1.152661   1.215999   4.437729  -2.421806  13.916808   8.440670   9.437680  47.872316 -179.816242  83.337123 179.809054   0.009133   5.374981  -7.037469   7.109618   1.944232 -14.332491  14.611846  -4.222193 -50.452810   0.009176 -60.451665   0.006727  -1.812727  -3.222692   5.528071   0.372879  -2.284598  -7.709183  13.682814  -0.000008   0.000030 -12.842052  -1.456984   4.709622  -0.293819   0.000000  -0.000000   6.226433   0.877338   6.828531   4.560494  -0.000002   0.000035 -10.763997   2.874698   2.287071   1.431225  -0.000001   0.000000
 -2.385329   0.907569   4.046463  -0.912647  -0.956615   0.618200  -4.464367  -0.414518  -0.969292   5.650182  -1.837812   2.384538  -0.993646  -1.157426   1.248718   4.247200  -2.395999  13.845828   7.886218   9.514176  47.932008 -179.855235  81.957136 179.847814   0.016992   5.565107  -7.276650   7.068479   1.956070 -14.255365  14.556955  -4.176852 -50.397600   0.008843 -60.138449   0.006636  -1.807490  -3.209345   5.604801   0.310840  -2.320201  -7.718999  13.728988  -0.000007   0.000031 -12.863376  -1.472050   4.697732  -0.292293   0.000000  -0.000000   6.160523   0.872500   6.825317   4.569873  -0.000001   0.000033 -10.750189   2.822392   2.274661   1.431020  -0.000001   0.000000
 -2.385387   0.907566   4.046369  -0.877997  -0.902140   0.633121  -4.494640  -0.392697  -0.959474   5.590652  -1.805204   2.418580  -0.918161  -1.161643   1.279478   4.067227  -2.369290  13.778089   7.367113   9.586368  47.987640 -179.883774  80.668444 179.876326   0.025918   5.754015  -7.505011   7.028883   1.967110 -14.182084  14.504618  -4.134662 -50.345197   0.008435 -59.846874   0.006463  -1.802091  -3.201933   5.682767   0.254527  -2.355562  -7.728330  13.772355  -0.000006   0.000031 -12.885091  -1.488152   4.686927  -0.290988   0.000000  -0.000000   6.099555   0.866085   6.822441   4.578003  -0.000001   0.000030 -10.737774   2.771638   2.262946   1.430877  -0.000001   0.000000
 -2.385425   0.907566   4.046158  -0.832383  -0.840936   0.657421  -4.512247  -0.376493  -0.952995   5.537133  -1.777091   2.456084  -0.823623  -1.180564   1.297454   3.903725  -2.338844  13.723096   6.751730   9.676979  48.077225 -179.900902  79.088631 179.893682   0.006654   5.647693  -7.740075   6.980394   1.997314 -14.090474  14.416921  -4.104942 -50.318826   0.007628 -59.669324   0.005939  -1.805428  -3.129885   5.770461   0.162410  -2.413045  -7.751569  13.844174  -0.000007   0.000023 -12.914068  -1.485669   4.674599  -0.288529   0.000001  -0.000000   6.008955   0.870541   6.809832   4.599337  -0.000001   0.000037 -10.718763   2.708691   2.237708   1.427791  -0.000001  -0.000000
 -2.385438   0.907569   4.045913  -0.786427  -0.758332   0.682406  -4.523073  -0.364108  -0.943919   5.481061  -1.751094   2.493373  -0.726557  -1.199407   1.315722   3.719745  -2.298593  13.666720   6.147430   9.783513  48.170429 -179.916136  77.573760 179.909179   0.011364   5.735542  -7.991994   6.921885   2.018503 -13.998365  14.323912  -4.084701 -50.292994   0.006880 -59.514304   0.005432  -1.804540  -3.110469   5.864472   0.074656  -2.480248  -7.775670  13.909009  -0.000005   0.000024 -12.939582  -1.495371   4.662120  -0.285931   0.000001  -0.000000   5.911510   0.893831   6.789731   4.617099   0.000002   0.000047 -10.695917   2.671129   2.210924   1.440150   0.000002   0.000008
 -2.385448   0.907585   4.045670  -0.740397  -0.685239   0.709918  -4.533720  -0.341040  -0.936343   5.422414  -1.717372   2.529468  -0.633701  -1.216717   1.333630   3.532633  -2.248884  13.613726   5.570562   9.892968  48.260416 -179.929602  76.150876 179.922971   0.026404   5.897708  -8.235582   6.861088   2.034994 -13.908847  14.232104  -4.068364 -50.266181   0.006211 -59.372602   0.004969  -1.801488  -3.115110   5.961861  -0.011023  -2.539902  -7.802796  13.966570  -0.000004   0.000023 -12.960619  -1.503394   4.648187  -0.282905   0.000001  -0.000000   5.819727   0.895257   6.770644   4.629769   0.000002   0.000047 -10.665366   2.612332   2.192258   1.434301   0.000001   0.000005
 -2.385448   0.907601   4.045442  -0.696043  -0.611469   0.736640  -4.544909  -0.315179  -0.926532   5.362943  -1.681170   2.564294  -0.546769  -1.232730   1.350553   3.351178  -2.196103  13.562775   5.026590   9.999115  48.345491 -179.941190  74.819735 179.934952   0.045109   6.081667  -8.466730   6.801099   2.048565 -13.823468  14.143783  -4.054621 -50.240153   0.005610 -59.242072   0.004546  -1.797403  -3.131363   6.058990  -0.090536  -2.598548  -7.829557  14.017836  -0.000002   0.000023 -12.979614  -1.513639   4.634698  -0.279879   0.000001  -0.000000   5.731225   0.897790   6.750648   4.641317   0.000003   0.000046 -10.634482   2.560296   2.172740   1.428576  -0.000000   0.000003
